# xmcd
#
# Track frame offsets: 
#        150
#        16706
#        35573
#        49468
#        65862
#        81300
#        94689
#        108851
#        127590
#        149440
#        166739
#        181913
#        195717
#        213591
#        227918
#        243631
#        260540
#        286859
#
# Disc length: 3830 seconds
#
# Revision: 0
# Processed by: cddbd v1.4PL0 Copyright (c) Steve Scherf et al.
# Submitted via: ExactAudioCopy v0.90b3
#
DISCID=010ef412
DTITLE=John Dean - Always on my mind...
DYEAR=2002
DGENRE=Country
TTITLE0=Don't be cruel - Teddy bear
TTITLE1=Suspicious minds
TTITLE2=Fool such as I
TTITLE3=One night
TTITLE4=Crying in the chapel
TTITLE5=Jailhouse rock
TTITLE6=Marie's the name
TTITLE7=It's now or never
TTITLE8=Always on my mind
TTITLE9=Polk salad Annie
TTITLE10=Wonder of you
TTITLE11=Suspicion
TTITLE12=Moody blue
TTITLE13=I need your love tonight
TTITLE14=Guitar man
TTITLE15=Ring around neck - Blue moon of Kentucky
TTITLE16=Are you lonesome tonight
TTITLE17=unknown
EXTD=
EXTT0=
EXTT1=
EXTT2=
EXTT3=
EXTT4=
EXTT5=
EXTT6=
EXTT7=
EXTT8=
EXTT9=
EXTT10=
EXTT11=
EXTT12=
EXTT13=
EXTT14=
EXTT15=
EXTT16=
EXTT17=
PLAYORDER=
